<?xml version="1.0" encoding="utf-8"?>
<!-- Generator: Adobe Illustrator 28.2.0, SVG Export Plug-In . SVG Version: 6.00 Build 0)  -->
<svg version="1.1" id="Laag_1" xmlns="http://www.w3.org/2000/svg" xmlns:xlink="http://www.w3.org/1999/xlink" x="0px" y="0px"
	 viewBox="0 0 2267.72 2267.72" style="enable-background:new 0 0 2267.72 2267.72;" xml:space="preserve">
<style type="text/css">
	.st0{fill:#0055FF;}
	.st1{fill:none;stroke:#000000;stroke-width:10;stroke-miterlimit:10;}
	.st2{fill:none;stroke:#00AFE5;stroke-width:10;stroke-miterlimit:10;}
	.st3{fill:none;stroke:#6F00FF;stroke-width:10;stroke-miterlimit:10;}
	.st4{fill:none;stroke:#0055FF;stroke-width:10;stroke-miterlimit:10;}
	.st5{fill:none;stroke:#000000;stroke-width:19;stroke-miterlimit:10;}
	.st6{fill:#0055FF;stroke:#0055FF;stroke-miterlimit:10;}
	.st7{fill:#0062FF;stroke:#0062FF;stroke-miterlimit:10;}
	.st8{fill:#009EFF;}
	.st9{stroke:#0062FF;stroke-width:13;stroke-miterlimit:10;}
	.st10{fill:#2789BA;}
	.st11{fill:#8FDDFF;stroke:#0062FF;stroke-miterlimit:10;}
	.st12{fill:#00E1FF;}
	.st13{fill:#FFFFFF;}
	.st14{font-family:'MyriadPro-Regular';}
	.st15{font-size:322.2089px;}
</style>
<g>
	<text transform="matrix(1 0 0 1 555.5327 1321.293)" class="st14 st15">LIGHTVI</text>
</g>
<line class="st9" x1="490.37" y1="1025.9" x2="1680.88" y2="1025.9"/>
<g>
	<g>
		<path class="st0" d="M1124.31,968.49c-8.8,3.3-18.15-1.1-21.45-9.9L976.65,617.5c-3.3-8.8,2.1-13.86,9.73-19.35
			c4.57-3.29,18.15,1.1,21.45,9.9l126.37,338.99C1137.51,955.84,1133.11,965.19,1124.31,968.49z M1259.91,596.05
			c8.8,3.3,13.2,12.65,9.9,21.45l-92.4,247.5c-3.3,8.8-12.65,13.2-21.45,9.9c-8.8-3.3-13.2-12.65-9.9-21.45l92.4-247.5
			C1241.76,597.15,1251.11,592.75,1259.91,596.05z"/>
	</g>
	<g>
		<g>
			<path d="M1119.5,969.57c0.08-0.04,0.17-0.08,0.29-0.08c0.02,0,0.03,0.01,0.04,0.01l-36.9-65.02l-96.28,0.57l4.36-308h-70.88
				l-1.77,374l201.03-1.47C1119.42,969.58,1119.46,969.57,1119.5,969.57z"/>
		</g>
		<g>
			<path class="st0" d="M1259.92,596c-8.8-3.3-18.15,1.1-21.45,9.9l-92.4,247.5c-3.3,8.8,1.1,18.15,9.9,21.45
				c8.8,3.3,18.15-1.1,21.45-9.9l92.4-247.5C1273.12,608.65,1268.72,599.3,1259.92,596z"/>
			<path class="st0" d="M1134.22,947l-126.37-338.99c-1.91-5.1-7.27-8.7-12.33-10.19c-0.03,0.25-0.07,0.51-0.1,0.76
				c-0.24,0.85-0.67,1.58-1.29,2.21c-0.34,0.26-0.67,0.52-1.01,0.78c-0.57,0.37-1.19,0.56-1.86,0.59c-0.01,0-0.01,0-0.02,0
				c0.52,6.64,0.3,13.49,0.45,20.06c0.02,1.11-0.25,2.02-0.72,2.74c0,0.77,0.01,1.54,0,2.32c-0.02,1.56-0.03,3.12-0.04,4.67
				c0.09,4.14,0.13,8.29,0.13,12.44c0,0.09-0.01,0.17-0.02,0.26c0,0.06,0,0.13,0,0.19c0.12,3.47-0.18,6.89-0.41,10.33l112.25,303.38
				c3.3,8.8,12.65,13.2,21.45,9.9S1137.52,955.79,1134.22,947z"/>
		</g>
	</g>
</g>
</svg>
